<svg xmlns="http://www.w3.org/2000/svg" viewBox="0 0 32 32">
  <!-- Raven favicon - solid black silhouette facing right -->

  <!-- Main body and head -->
  <path d="M5 14 Q3 18 4 22 L2 27 L5 24 Q6 26 8 26 L8 29 L6 29 L8 30 L11 29 L10 26 L12 26 L12 29 L10 29 L12 30 L15 29 L14 26 Q18 24 21 20 Q24 16 24 12 Q24 9 22 7 L20 6 Q17 5 14 6 Q10 7 7 10 Q5 12 5 14 Z" fill="black"/>

  <!-- Beak -->
  <path d="M22 7 L20 6 Q23 5 26 6 L31 3 L27 8 Q25 7 22 7 Z" fill="black"/>

  <!-- Wing accent -->
  <path d="M6 15 Q4 18 5 22 L3 26 L2 28 L4 25 L6 22 Q5 18 7 15 Z" fill="black"/>

  <!-- Eye -->
  <circle cx="21" cy="9" r="1.5" fill="white"/>

  <!-- Ground line -->
  <line x1="5" y1="30" x2="16" y2="30" stroke="black" stroke-width="1.5"/>
</svg>
